<svg width="19" height="21" viewBox="0 0 19 21" fill="none" xmlns="http://www.w3.org/2000/svg">
<path fill-rule="evenodd" clip-rule="evenodd" d="M9.49999 5.78817C11.4938 3.91786 16.4776 7.19255 9.49999 11.4017C2.52237 7.19255 7.50618 3.91917 9.49999 5.7908V5.78817Z" fill="#8D4337"/>
<path d="M0.875 2.625C0.875 1.92881 1.1779 1.26113 1.71707 0.768845C2.25623 0.276562 2.9875 0 3.75 0L15.25 0C16.0125 0 16.7438 0.276562 17.2829 0.768845C17.8221 1.26113 18.125 1.92881 18.125 2.625V20.3438C18.1249 20.4625 18.0896 20.5789 18.0228 20.6807C17.9559 20.7826 17.8601 20.8659 17.7455 20.922C17.6309 20.978 17.5018 21.0046 17.3719 20.9989C17.242 20.9932 17.1163 20.9555 17.0081 20.8898L9.5 17.1951L1.99194 20.8898C1.8837 20.9555 1.75796 20.9932 1.62809 20.9989C1.49823 21.0046 1.36912 20.978 1.2545 20.922C1.13988 20.8659 1.04406 20.7826 0.977226 20.6807C0.910397 20.5789 0.875067 20.4625 0.875 20.3438V2.625ZM3.75 1.3125C3.36875 1.3125 3.00312 1.45078 2.73353 1.69692C2.46395 1.94306 2.3125 2.2769 2.3125 2.625V19.1179L9.10181 15.8602C9.21977 15.7886 9.35831 15.7503 9.5 15.7503C9.64169 15.7503 9.78023 15.7886 9.89819 15.8602L16.6875 19.1179V2.625C16.6875 2.2769 16.536 1.94306 16.2665 1.69692C15.9969 1.45078 15.6312 1.3125 15.25 1.3125H3.75Z" fill="#8D4337"/>
</svg>
